 <svg  version="1.0" xmlns="http://www.w3.org/2000/svg"  width="300.000000pt" height="300.000000pt" viewBox="0 0 300.000000 300.000000"  preserveAspectRatio="xMidYMid meet">  <g transform="translate(0.000000,300.000000) scale(0.050000,-0.050000)" fill="#ffffff" stroke="none"> <path d="M1050 5391 c-253 -47 -400 -142 -478 -311 -40 -85 -43 -133 -52 -900 -12 -1006 -18 -1026 -335 -1100 -129 -30 -164 -166 -50 -191 369 -82 372 -91 385 -1109 11 -897 15 -922 154 -1053 138 -130 215 -147 671 -147 l415 0 0 47 c0 47 -2 47 -314 61 -782 35 -772 21 -786 1162 -12 945 -20 984 -247 1104 -33 18 -32 22 19 55 212 140 215 151 228 1101 17 1135 11 1126 735 1145 l365 10 0 77 0 78 -285 -2 c-157 -1 -348 -13 -425 -27z"/> <path d="M4249 5394 c-45 -117 -28 -123 361 -137 729 -26 730 -27 730 -1049 0 -915 22 -1040 212 -1173 l85 -61 -71 -48 c-207 -140 -211 -163 -225 -1136 -12 -887 -8 -860 -130 -966 -104 -92 -307 -128 -841 -149 -105 -4 -120 -10 -120 -45 0 -64 783 -71 930 -8 287 123 305 189 319 1178 14 1003 16 1010 386 1089 114 24 79 163 -49 190 -317 68 -323 88 -338 1081 -7 446 -19 833 -27 860 -44 156 -207 297 -403 351 -177 49 -803 66 -819 23z"/> <path d="M2060 2981 l0 -1403 125 6 125 6 5 595 6 595 368 0 c357 0 431 -7 431 -40 0 -9 127 -274 283 -588 l282 -572 149 0 c82 0 146 7 142 15 -7 15 -73 152 -395 813 -101 207 -176 384 -167 392 9 8 63 30 120 49 620 201 682 1127 94 1412 -200 97 -263 105 -933 114 l-635 8 0 -1402z m1368 1110 c424 -159 466 -804 66 -1000 -149 -73 -296 -90 -769 -91 l-405 0 0 572 0 571 505 -8 c428 -6 520 -13 603 -44z"/> </g> </svg> 